<?xml version="1.0" encoding="utf-8"?>
<!DOCTYPE svg PUBLIC "-//W3C//DTD SVG 1.1//EN" "http://www.w3.org/Graphics/SVG/1.1/DTD/svg11.dtd">
<svg version="1.1" xmlns="http://www.w3.org/2000/svg" xmlns:xlink="http://www.w3.org/1999/xlink" 
	width="165px" height="1650px" viewBox="0 0 165 1650">
<defs>
<g id="influencer_outreach">
	<g>
		<path d="M40.59,44.234c7.751,0.227,16.401,1.117,24.919-0.995C78.321,40.062,87.96,32.892,93.62,20.76
			c0.35-0.752,0.729-1.49,1.084-2.24c0.965-2.051,2.584-3.047,4.813-2.626c2.484,0.468,2.811,2.335,2.791,4.54
			c-0.071,7.825,0.1,15.653-0.084,23.477c-0.071,3.006,0.925,4.375,3.854,5.254c8.602,2.581,12.358,8.569,12.19,18.67
			c-0.126,7.622-4.952,14.359-12.413,16.1c-3.107,0.726-3.635,2.023-3.604,4.688c0.097,7.989,0.004,15.983,0.06,23.975
			c0.016,2.214-0.425,4.099-2.88,4.507c-2.193,0.363-3.877-0.676-4.799-2.724c-9.408-20.917-27.149-26.038-47.99-25.465
			c-8.816,0.241-17.644,0.364-26.461,0.229c-9.626-0.15-15.9-6.493-15.876-16.078c0.016-5.789-0.91-11.654,0.645-17.374
			c2.065-7.598,7.034-11.409,14.795-11.452C26.404,44.205,33.065,44.234,40.59,44.234z M95.954,32.167
			c-0.795,0.206-1.227,0.182-1.385,0.378c-9.125,11.377-21.124,17.336-35.499,18.63c-2.634,0.237-2.848,1.593-2.837,3.62
			c0.042,7.821,0.144,15.645-0.035,23.462c-0.068,3,0.938,3.782,3.897,4.179c10.157,1.361,19.712,4.615,27.659,11.352
			c2.658,2.25,4.694,5.232,7.016,7.881c0.395-0.331,0.789-0.663,1.184-0.994C95.954,77.947,95.954,55.219,95.954,32.167z
			 M32.733,51.234c0-0.021,0-0.041,0-0.063c-4.494,0-8.988-0.066-13.479,0.019c-4.769,0.09-7.82,2.934-7.978,7.662
			c-0.171,5.152-0.161,10.32-0.003,15.475c0.141,4.593,3.305,7.774,7.908,7.842c8.984,0.131,17.974-0.027,26.958,0.079
			c2.608,0.03,3.48-0.904,3.433-3.496c-0.132-7.32-0.362-14.662,0.063-21.96c0.281-4.818-1.522-6.037-5.926-5.626
			C40.08,51.503,36.394,51.234,32.733,51.234z M102.282,65.756c0,2.81,0.042,5.618-0.011,8.427c-0.072,3.87,1.804,3.641,4.343,2.138
			c6.549-3.879,6.877-15.054,0.499-19.48c-1.127-0.782-2.433-2.105-3.999-1.172c-1.35,0.805-0.758,2.391-0.808,3.645
			C102.222,61.458,102.282,63.608,102.282,65.756z"/>
		<path d="M19.232,107.707c-0.177-3.29,0.183-7.403,0.9-11.525c0.468-2.684,1.333-4.62,4.402-3.977
			c2.829,0.593,2.821,2.856,2.437,5.14c-1.617,9.619-1.493,19.18,1.348,28.563c2.995,9.889,8.759,14.781,16.576,14.299
			c1.134-0.07,2.292-0.326,3.369-0.699c5.447-1.887,5.453-2.076,1.857-6.551c-5.195-6.467-7.218-14.137-7.827-22.184
			c-0.351-4.638-0.061-9.322-0.045-13.985c0.008-2.509,0.392-4.918,3.644-4.763c3.249,0.153,3.488,2.717,3.238,5.114
			c-0.763,7.354-0.476,14.611,1.552,21.746c1.674,5.894,4.21,11.131,10.136,14.044c3.308,1.626,3.083,3.94,0.607,6.323
			c-13.661,13.16-30.797,9.687-38.174-7.793c-1.548-3.668-2.41-7.543-3.219-11.458C19.245,116.188,19.282,112.405,19.232,107.707z"
			/>
		<path d="M162.29,65.163c-0.108,11.244-4.052,21.013-11.348,29.477c-1.55,1.797-3.451,3.799-5.811,1.493
			c-2.064-2.021-0.955-4.214,0.761-6.098c13.003-14.274,12.7-37.113-0.071-50.809c-1.76-1.888-2.745-4.154-0.684-6.109
			c2.332-2.209,4.287-0.282,5.85,1.535C158.516,43.417,162.419,53.541,162.29,65.163z"/>
		<path d="M142.626,64.427c-0.105,8.175-3.072,14.771-9.076,19.934c-1.963,1.69-4.375,3.47-6.543,1.194
			c-2.254-2.367-0.194-4.359,1.768-6.173c10.066-9.306,9.855-20.912-0.573-29.976c-1.925-1.674-2.878-3.474-1.321-5.516
			c1.715-2.248,3.836-1.195,5.654,0.225C139.236,49.35,142.608,56.255,142.626,64.427z"/>
	</g>
</g>
<g id="digital_print_publishing">
	<g>
		<path d="M151.122,62.378c0.004,1.498,0.203,3.029-0.035,4.49c-0.646,3.973,0.4,6.268,4.941,6.084
			c2.553-0.105,3.623,1.943,4.604,3.955c6.358,13.018,2.514,30.59-8.013,36.703c-1.977,1.146-1.473,2.77-1.477,4.324
			c-0.033,15.316,1.029,12.975-13.137,17.367c-12.181,3.779-24.282,7.797-36.459,11.584c-2.6,0.809-4.729,1.896-6.733,3.877
			c-5.158,5.092-19.342,4.994-24.572-0.107c-1.881-1.836-3.879-2.891-6.33-3.609c-14.609-4.297-29.157-8.807-43.793-13.012
			c-3.999-1.15-5.978-3.143-5.448-7.381c0.164-1.313-0.025-2.664,0.032-3.994c0.199-4.5-0.398-7.902-4.631-11.361
			C0.736,103.671-0.932,85.567,5.5,75.466c1.347-2.115,3.272-2.93,5.468-2.824c3.273,0.162,3.864-1.344,3.723-4.229
			c-0.226-4.484,0.024-8.988-0.068-13.48c-0.085-4.031,1.92-5.691,5.61-4.61c16.987,4.979,33.933,10.122,50.877,15.257
			c0.917,0.273,1.839,0.854,2.521,1.527c5.902,5.811,11.985,5.789,18.107-0.098c1.104-1.059,2.516-1.502,3.966-1.951
			c15.966-4.949,31.906-9.977,47.873-14.924c5.681-1.76,7.425-0.383,7.533,5.748C151.149,58.046,151.116,60.212,151.122,62.378z
			 M68.039,106.292c0-9.822-0.194-19.652,0.099-29.465c0.116-3.863-1.211-5.625-4.821-6.65c-10.976-3.113-21.877-6.479-32.808-9.754
			c-9.418-2.822-9.235-2.824-9.401,7.199c-0.063,3.885,0.933,5.045,4.968,4.998c5.617-0.068,8.961,3.113,8.313,7.645
			c-0.683,4.799,1.129,9.482-0.768,14.543c-1.053,2.816-2.361,6.482-2.111,9.793c0.409,5.455-2.16,8.188-7.037,9.072
			c-2.742,0.5-3.563,1.789-3.322,4.373c0.186,1.982,0.188,4.004,0.027,5.988c-0.197,2.482,0.981,3.469,3.237,4.135
			c13.164,3.885,26.313,7.838,39.414,11.924c3.431,1.07,4.318,0.078,4.267-3.336C67.935,126.604,68.037,116.446,68.039,106.292z
			 M99.203,121.428c-0.439,0-0.883,0.002-1.323,0.002c0,5.158,0.125,10.32-0.047,15.475c-0.103,3.064,0.961,3.825,3.813,2.911
			c13.075-4.196,26.138-8.452,39.286-12.413c5.656-1.705,2.375-6.027,3.172-9.13c0.713-2.771-0.586-4.312-3.486-4.69
			c-2.789-0.365-5.69-1.666-6.053-4.443c-0.506-3.92-1.824-7.6-2.445-11.43c-0.869-5.385-1.453-10.779-1.256-16.332
			c0.176-4.836,1.797-8.328,6.451-8.293c6.926,0.051,7.688-3.488,6.857-8.873c-0.148-0.977-0.105-2.006,0.006-2.992
			c0.407-3.5-0.759-4.229-4.158-3.096c-12.247,4.076-24.543,8.02-36.913,11.703c-3.004,0.895-3.96,2.258-3.943,5.207
			C99.253,90.497,99.203,105.963,99.203,121.428z M74.845,111.629c0.008,0,0.016,0,0.024,0c0,9.479,0.006,18.963-0.004,28.445
			c-0.007,6.691,2.273,8.688,9.063,7.898c6.115-0.711,6.984-1.688,7.105-7.734c0.39-19.945,0.686-39.895,1.303-59.83
			c0.112-3.607-1.068-3.959-3.859-3.094c-3.086,0.962-6.363,1.408-9.356,0.494c-4.173-1.271-4.343,0.74-4.313,3.873
			C74.902,91.667,74.845,101.647,74.845,111.629z M141.261,106.229c8.246,2.063,10.905,0.896,13.787-6.098
			c2.284-5.545,2.596-11.272,0.791-17.008c-0.472-1.494-0.82-3.645-2.82-3.727c-4.826-0.195-9.693-0.582-15.398,0.344
			c2.439,1.896,5.74,1.564,5.599,4.973c-0.132,3.123-2.773,3.119-4.822,4.051c1.574,2.177,5.771,0.236,5.904,4.354
			c0.108,3.24-3.22,2.803-4.382,4.721c2.443,0.625,5.414,0.492,6.035,3.564C146.616,104.676,142.968,104.585,141.261,106.229z
			 M26.769,79.212c-2.586,0-5.172-0.002-7.758,0.002c-8.745,0.01-10.543,1.631-10.646,10.611c-0.05,4.301,0.837,8.564,2.992,12.422
			c2.997,5.359,6.604,6.42,12.736,3.66c-1.961-1.111-4.904-1.345-4.595-4.375c0.33-3.229,3.604-2.927,5.977-3.826
			c-1.673-1.639-4.194-1.512-4.361-4.229c-0.264-4.338,4.339-2.549,5.888-4.752c-2.1-0.866-4.563-0.95-4.815-3.811
			C21.871,81.415,25.175,81.614,26.769,79.212z"/>
		<path d="M82.78,64.462c-3.5-1.068-6.976-2.104-10.437-3.191c-16.893-5.313-33.77-10.672-50.679-15.928
			c-2.526-0.785-5.267-1.455-4.336-4.762c0.949-3.387,3.597-2.389,6.106-1.603C41.913,44.78,60.432,50.44,78.883,56.308
			c2.868,0.914,5.353,0.854,8.175-0.081c17.759-5.86,35.565-11.58,53.358-17.341c1.104-0.354,2.261-0.58,3.322-1.02
			c2.283-0.947,4.021-0.354,4.773,1.943c0.778,2.391-0.678,3.668-2.824,4.359c-7.557,2.436-15.111,4.877-22.665,7.326
			c-12.12,3.928-24.237,7.865-36.36,11.791C85.421,63.694,84.156,64.049,82.78,64.462z"/>
		<path d="M82.253,11.198c17.518,0.006,31.228,9.895,35.292,24.006c0.621,2.15,0.563,4.254,0.656,6.396
			c0.092,2.078-0.483,3.609-2.953,3.672c-2.049,0.055-2.969-0.938-3.248-2.93c-0.323-2.293-0.646-4.633-1.385-6.811
			c-3.699-10.923-14.975-17.721-28.533-17.354c-11.778,0.316-22.383,8.168-25.36,18.865c-0.396,1.414-0.418,2.934-0.568,4.41
			c-0.259,2.502-1.363,4.127-4.134,3.803c-2.698-0.318-2.97-2.383-2.77-4.471c1.063-11.072,6.659-19.238,16.235-24.693
			C71.207,12.835,77.464,11.395,82.253,11.198z"/>
	</g>
</g>
<g id="research_analytics">
	<g>
		<path d="M83.886,11.227c17.484-0.001,34.972,0.111,52.456-0.048c8.505-0.077,15.261,3.037,15.029,15.021
			c-0.519,26.967-0.136,53.951-0.133,80.928c0.002,7.78-2.921,11.823-10.63,12.144c-15.112,0.625-30.262,0.633-45.389,0.414
			c-2.813-0.041-3.113,0.622-3.095,2.747c0.01,1-0.019,1.998-0.006,2.998c0.042,3.326-0.815,7.035,0.381,9.879
			c1.402,3.332,5.905,1.461,8.878,2.809c5.685,2.57,11.337,5.008,14.009,11.188c2.106,4.871,0.818,6.938-4.31,6.949
			c-18.479,0.055-36.958-0.039-55.435,0.123c-4.449,0.039-5.617-1.672-4.575-5.748c0.69-2.705,2.113-4.846,4.169-6.617
			c3.318-2.859,7.131-4.711,11.305-6.104c2.596-0.869,6.947-0.193,7.509-2.809c0.985-4.604,0.521-9.592,0.155-14.379
			c-0.175-2.301-2.699-1.641-4.153-1.455c-12.438,1.604-24.924,0.063-37.364,0.744c-3.065,0.168-5.968-0.547-8.814-1.328
			c-4.896-1.342-8.363-6.188-8.366-11.758c-0.015-27.477-0.021-54.953,0.185-82.426c0.068-9.103,4.558-13.223,13.74-13.253
			C47.583,11.184,65.734,11.228,83.886,11.227z M84.04,18.202c-17.818,0-35.637-0.004-53.455,0.002
			c-7.08,0.002-8.314,1.239-8.32,8.444c-0.018,26.313,0.01,52.624-0.047,78.935c-0.013,6.102,0.992,7.457,7.059,7.467
			c36.127,0.074,72.255,0.092,108.384,0.059c5.33-0.004,6.785-1.531,6.8-6.938c0.069-26.977,0.097-53.955,0.065-80.932
			c-0.007-5.94-1.182-7.011-7.029-7.018C119.678,18.205,101.858,18.216,84.04,18.202z M107.536,149.71
			c-5.414-4.641-10.967-6.012-16.294-7.152c-4.108-0.881-5.164-2.689-5.023-6.389c0.165-4.316,0.04-8.646,0.033-12.965
			c-0.003-2.023,0.236-4.127-2.901-4.014c-3.039,0.109-2.824,2.219-2.837,4.219c-0.025,3.82-0.236,7.664,0.061,11.465
			c0.414,5.274-1.576,7.815-7.004,8.567c-4.728,0.655-9.602,1.808-14.012,6.521C75.789,149.926,90.931,150.645,107.536,149.71z"/>
		<path d="M85.734,102.235c-16.817,0-33.632,0.012-50.45-0.016c-2.271-0.002-4.787,0.572-6.368-1.813
			c-1.774-2.686,0.734-3.77,2.024-5.354c1.027-1.266,0.621-2.875,0.622-4.344c0.011-10.33-0.074-20.66,0.001-30.988
			c0.064-8.597,8.443-13.229,15.965-8.931c2.179,1.244,2.568,3.21,2.583,5.52c0.077,10.993,0.288,21.985,0.361,32.979
			c0.041,6.053-0.041,6.112,7.928,6.385c4.973,0.17,2.559-3.765,2.797-5.83c0.417-3.618,0.014-7.321,0.146-10.979
			c0.162-4.457,2.05-7.318,7.073-6.948c1.325,0.098,2.665-0.023,3.997,0.019c5.306,0.164,6.671,1.511,6.787,6.966
			c0.096,4.496,0.137,9.001,0.001,13.493c-0.137,4.528,3.143,3.485,5.566,3.44c2.522-0.049,6.212,1.397,6.118-3.427
			c-0.25-13.131,0.963-26.282-0.664-39.394c-0.145-1.147,0.063-2.339-0.051-3.494c-1.066-10.604,5.572-11.343,14.017-9.8
			c4.178,0.764,5.014,4.297,5.005,8.11c-0.037,14.16,0.203,28.327-0.117,42.483c-0.104,4.617,1.824,4.9,5.549,5.019
			c4.064,0.125,5.054-1.237,4.931-5.095c-0.271-8.487-0.17-16.991-0.038-25.486c0.105-6.813,2.118-8.349,10.07-8.198
			c6.926,0.13,8.604,1.771,8.621,8.521c0.021,8.664-0.007,17.325,0.032,25.99c0.008,1.727-0.564,3.684,1.938,4.51
			c2.082,0.688,2.645,2.461,2.028,4.445c-0.689,2.234-2.644,2.225-4.518,2.188c-15.652-0.293-31.313,0.551-46.963-0.315
			c-1.66-0.093-3.331-0.013-4.996-0.013C85.734,101.999,85.734,102.118,85.734,102.235z M97.191,71.14c0.024,0,0.05,0,0.074,0
			c0,6.647-0.043,13.295,0.031,19.94c0.019,1.646-0.762,3.938,2.223,4.053c2.89,0.108,2.556-2.021,2.562-3.798
			c0.043-13.791,0.056-27.583,0.07-41.375c0.002-1.851,0.214-3.81-2.635-3.728c-2.997,0.086-2.288,2.298-2.302,3.972
			C97.158,57.182,97.191,64.161,97.191,71.14z M44.245,61.173c-0.533-1.682,1.164-4.739-2.457-4.755
			c-3.072-0.015-3.483,2.186-3.456,4.85c0.097,9.978,0.011,19.951-0.021,29.929c-0.006,2.043-0.258,4.134,2.876,4
			c3.066-0.129,2.19-2.416,2.237-4.021C43.714,81.216,42.659,71.228,44.245,61.173z M131.223,79.255
			c0-4.323,0.011-8.646-0.006-12.966c-0.008-1.507,0.136-3.042-2.177-3.082c-2.247-0.038-2.847,1.052-2.836,3.063
			c0.045,8.646,0.058,17.288-0.001,25.935c-0.014,2.01,0.466,3.096,2.771,3.031c2.252-0.063,2.249-1.446,2.247-3.016
			C131.216,87.899,131.219,83.575,131.223,79.255z M73.281,86.889c-0.01,0-0.02,0-0.032,0c0-2.331,0.015-4.662-0.004-6.992
			c-0.015-2.038-1.374-2.386-3.033-2.42c-1.756-0.036-2.95,0.537-2.958,2.496c-0.013,4.494-0.019,8.99,0.019,13.484
			c0.016,2.014,1.403,2.383,3.062,2.411c1.738,0.027,2.947-0.492,2.947-2.486C73.282,91.217,73.281,89.053,73.281,86.889z"/>
	</g>
</g>
<g id="event_design_production">
	<g>
		<path d="M111.822,111.233c-1.407,9.894-1.496,9.967-11.692,9.965c-13.828-0.002-27.658-0.055-41.484,0.021
			c-4.252,0.021-7.33-1.43-7.644-5.969c-0.68-9.793-1.203-19.673,0.713-29.34c1.968-9.938,8.665-16.455,17.633-21.117
			c-4.229-0.529-8.272-0.896-11.795-3.203c-3.965-2.596-4.567-4.875-1.536-8.526c3.363-4.052,4.403-8.854,5.153-13.769
			c0.779-5.096,2.917-9.541,6.137-13.419c7.696-9.27,20.915-8.818,28.436,0.886c2.361,3.046,4.359,6.395,4.981,10.211
			c1.051,6.455,2.446,12.641,6.813,17.868c1.854,2.221,0.619,4.361-1.539,5.916c-3.785,2.729-8.062,3.771-13.345,3.896
			c19.692,8.739,19.921,25.673,18.315,43.396c7.35-3.223,14.297-1.543,21.078-1.799c9.531-0.361,8.031,1.053,8.14-8.318
			c0.049-4.165,0.026-8.33,0.002-12.494c-0.063-11.042-5.554-19.082-15.713-23.049c-4.703-1.836-6.994-7.362-4.896-11.94
			c0.664-1.449,1.779-2.4,3.508-2.325c1.498,0.064,2.996,0.104,4.488,0.222c7.398,0.569,7.473,0.371,4.868-6.486
			c-1.05-2.763-1.692-5.718-2.194-8.642c-0.656-3.825-1.852-7.394-4.063-10.577c-5.438-7.827-14.253-7.883-19.826-0.188
			c-1.729,2.385-3.045,6.896-6.911,4.028c-3.56-2.642-0.162-5.8,1.52-8.183c8.06-11.423,23.078-11.056,30.938,0.538
			c2.87,4.232,4.438,8.935,5.043,13.871c0.549,4.477,2.219,8.304,4.992,11.704c2.424,2.971,1.895,5.333-0.982,7.624
			c-3.807,3.029-8.307,3.504-13.078,3.658c2.886,2.231,5.936,3.729,8.553,5.944c7.236,6.127,10.313,14.132,10.701,23.278
			c0.275,6.483,0.131,12.993,0.039,19.487c-0.086,6.056-2.514,8.599-8.42,8.703c-6.994,0.127-13.998-0.097-20.989,0.112
			C115.458,113.288,113.813,111.921,111.822,111.233z M80.984,114.226c3.166,0,6.332,0,9.497,0s6.358-0.271,9.489,0.063
			c4.33,0.457,5.465-1.381,5.199-5.402c-0.306-4.645,0.047-9.33-0.112-13.988c-0.202-5.89-1.366-11.532-5.183-16.306
			c-3.234-4.043-7.617-6.311-12.359-8.048c-5.529-2.025-3.059-6.763-3.088-10.332c-0.026-3.43,3.092-3.191,5.668-3.084
			c2.328,0.098,4.662,0.049,6.994,0.072c2.039,0.021,2.985-0.968,1.849-2.763C95.9,49.653,95.436,44.143,94.22,38.84
			c-0.758-3.318-2.325-6.208-4.58-8.718c-4.803-5.354-11.624-5.498-16.606-0.325c-2.471,2.565-4.101,5.618-4.851,9.123
			c-0.694,3.238-1.428,6.47-2.095,9.714c-0.579,2.819-4.219,5.691-2.375,7.922c1.632,1.979,5.654,0.521,8.625,0.521
			c1.951,0,4.03-0.441,5.295,1.786c2.475,4.359,0.09,10.489-4.683,12.418c-8.074,3.26-13.458,8.779-14.948,17.748
			c-1.242,7.474-0.346,14.955-0.655,22.429c-0.112,2.696,1.669,2.78,3.647,2.771C67.658,114.2,74.321,114.219,80.984,114.226z"/>
		<path d="M22.288,93.711c0.326-4.024-0.266-8.981,0.568-13.983C24.59,69.33,30.413,62.155,39.615,57.71
			c3.711-1.791,4.281-3.08,1.064-5.841c-3.228-2.771-5.426-6.452-8.95-9.145c-4.566-3.486-4.141-12.631,0.319-16.523
			c1.972-1.722,3.137-3.708,4.338-5.881C42.874,8.579,57.163,6.531,66.08,16.021c1.621,1.725,3.442,3.669,1.324,6.028
			c-2.227,2.477-4.051,0.678-5.866-0.991c-7.549-6.945-16.208-4.995-20.214,4.57c-0.837,1.999-1.576,3.74-3.602,5.075
			c-3.777,2.49-2.533,5.111,0.322,8.257c4.76,5.246,12.509,8.851,11.816,17.869c-0.228,2.961-1.147,4.688-4.243,5.815
			c-11.544,4.204-16.374,11.482-16.395,23.827c-0.009,5.159,0.16,10.324-0.059,15.476c-0.135,3.16,0.709,4.55,4.125,4.304
			c3.807-0.271,7.65-0.043,11.478-0.063c2.404-0.014,4.467,0.576,4.504,3.418c0.033,2.521-1.855,3.445-4.02,3.48
			c-5.489,0.092-10.997,0.27-16.466-0.076c-3.946-0.25-6.345-2.756-6.47-6.879C22.197,102.307,22.288,98.479,22.288,93.711z"/>
		<path d="M126.658,137.184c-0.225,2.266-0.3,3.371-0.452,4.471c-0.246,1.77-1.338,2.555-3.082,2.57
			c-1.799,0.02-2.976-0.904-2.998-2.623c-0.057-4.477,0.101-8.959,0.178-13.438c0.004-0.162,0.048-0.341,0.125-0.479
			c1.09-2.021,2.8-2.731,5.003-2.287c4.514,0.912,10.567-1.656,13.252,2.916c2.269,3.866-2.556,4.056-6.101,4.681
			c5.805,5.971,11.24,11.439,16.521,17.057c1.905,2.027,5.655,4.289,2.596,7.34c-2.987,2.98-5.272-0.528-7.319-2.549
			C138.727,149.258,133.12,143.629,126.658,137.184z"/>
		<path d="M39.836,136.942c-5.721,5.85-10.679,10.92-15.641,15.986c-0.931,0.951-1.895,1.871-2.807,2.838
			c-1.778,1.889-3.916,3.994-6.318,1.766c-2.459-2.285-0.401-4.463,1.417-6.318c4.771-4.871,9.516-9.766,14.258-14.666
			c0.909-0.938,1.755-1.941,2.579-2.857c-0.789-1.568-2.186-0.91-3.217-1.27c-1.626-0.563-2.68-1.686-2.577-3.242
			c0.117-1.764,1.255-3.023,3.27-3.09c1.329-0.041,2.657-0.176,3.985-0.166c3.67,0.025,8.603-2.664,10.668,1.043
			c2.44,4.379,1.774,9.992,0.975,15.123c-0.24,1.541-1.378,2.127-2.889,2.199c-1.568,0.072-2.624-0.68-3.028-2.058
			C40.145,140.989,40.155,139.631,39.836,136.942z"/>
		<path d="M87.632,141.667c0,4.646-0.061,8.418,0.021,12.188c0.059,2.641,0.79,5.795-2.951,6.244
			c-4.273,0.516-3.425-2.979-3.589-5.502c-0.262-4.057,0.686-8.229-1.063-12.555c-0.928,0.635-1.612,1.043-2.229,1.533
			c-1.646,1.309-3.533,1.645-4.906,0.032c-1.482-1.735-0.976-3.716,0.66-5.317c0.356-0.352,0.7-0.709,1.066-1.047
			c10.8-9.957,7.201-11.551,19.541,0.521c1.589,1.554,3.138,3.395,1.298,5.59c-1.771,2.115-3.813,1.334-5.673-0.18
			C89.329,142.784,88.79,142.463,87.632,141.667z"/>
	</g>
</g>
<g id="creative_design">
	<g>
		<path d="M74.036,134.183c-10.823,0.002-21.646,0.006-32.471-0.001c-9.074-0.006-11.789-2.503-11.921-11.894
			c-0.191-13.484-0.097-26.971-0.02-40.457c0.021-3.635-0.623-7.219,0.163-10.932c1.078-5.101,4.117-7.612,8.962-7.638
			c23.646-0.118,47.29-0.112,70.937-0.008c5.854,0.026,9.301,3.526,9.348,10.017c0.126,17.145,0.018,34.293-0.291,51.436
			c-0.119,6.607-3.476,9.427-10.237,9.46C97.017,134.223,85.525,134.182,74.036,134.183z M74.573,70.317
			c-10.971,0-21.941-0.012-32.912,0.01c-1.938,0.003-4.174-0.5-5.068,2.029c-0.76,2.147,0.155,3.857,1.641,5.379
			c11.027,11.289,22.067,22.563,33.045,33.897c1.993,2.058,3.544,2.442,5.75,0.147c10.94-11.373,21.998-22.631,33.024-33.918
			c1.607-1.646,2.726-3.463,1.689-5.787c-1.065-2.394-3.346-1.735-5.256-1.742C95.849,70.296,85.209,70.315,74.573,70.317z
			 M40.796,125.141c0.433,0.552,0.865,1.104,1.299,1.655c20.904,0,41.81,0,63.037,0c-2.274-3.827-5.36-6.177-8.002-8.919
			c-2.527-2.621-4.916-6.69-7.892-7.229c-3.746-0.681-5.626,4.36-8.337,6.894c-4.224,3.942-8.952,3.991-13.169-0.072
			c-2.274-2.192-4.53-4.415-6.646-6.759c-1.603-1.773-2.695-1.656-4.44,0.011C51.483,115.651,46.095,120.353,40.796,125.141z
			 M111.728,85.835c-6.221,6.375-11.485,11.775-16.759,17.168c-0.812,0.828-1.054,1.755-0.219,2.613
			c5.438,5.58,10.529,11.527,16.978,17.007C111.728,110.308,111.728,98.851,111.728,85.835z M36.638,120.407
			c5.58-5.358,10.783-10.326,15.944-15.336c1.001-0.973,0.898-2.036-0.128-3.032c-5.164-5.007-10.312-10.026-15.816-15.384
			C36.638,98.028,36.638,108.991,36.638,120.407z"/>
		<path d="M46.971,35.165c11.996,0,23.991-0.067,35.984,0.031c4.92,0.041,8.208,3.17,8.286,7.422
			c0.03,1.55-0.009,3.042-1.803,3.697c-1.857,0.679-3.509,0.211-4.102-1.619c-0.891-2.75-2.915-2.818-5.145-2.816
			c-22.156,0.016-44.313,0.073-66.469-0.01c-3.461-0.014-4.604,1.211-4.571,4.684C9.3,62.379,9.242,78.206,9.191,94.032
			c-0.007,2.334,0.238,4.258,2.817,5.176c1.808,0.645,2.589,2.134,2.007,3.997c-0.701,2.25-2.646,2.364-4.51,2.044
			c-4.703-0.809-6.734-3.997-6.813-8.471C2.568,89.616,2.64,82.453,2.637,75.29c-0.006-9.996-0.055-19.992,0.012-29.987
			c0.049-7.421,2.861-10.147,10.338-10.167c11.328-0.027,22.656-0.007,33.984-0.007C46.971,35.142,46.971,35.153,46.971,35.165z"/>
		<path d="M15.528,86.164c0-10.144-0.06-17.976,0.016-25.808c0.08-8.402,2.654-11.422,10.813-11.494
			c22.491-0.198,44.985-0.198,67.477-0.058c7.27,0.046,10.553,2.843,10.495,7.863c-0.018,1.55-0.043,3.131-1.995,3.5
			c-1.749,0.331-3.586,0.168-4.015-1.897c-0.605-2.92-2.585-3.009-4.879-3.007c-21.996,0.021-43.992,0.069-65.987-0.051
			c-3.988-0.022-5.2,1.592-5.169,5.381c0.123,15.662,0.083,31.327,0.006,46.99c-0.012,2.567,0.438,4.532,3.111,5.548
			c1.926,0.732,2.204,2.492,1.647,4.186c-0.645,1.959-2.482,2.142-4.164,1.853c-4.096-0.703-6.455-3.215-6.905-7.367
			C14.971,102.503,15.862,93.166,15.528,86.164z"/>
		<path d="M138.938,49.545c-7.192,2.783-13.941,5.503-20.777,7.985c-2.659,0.965-6.239,4.154-7.958-0.517
			c-1.667-4.53,3.101-4.657,5.702-5.753c6.967-2.934,14.053-5.583,20.984-8.303c-0.028-1.665-1.4-1.594-2.032-2.29
			c-1.12-1.231-1.416-2.536-0.666-4.103c0.742-1.552,2.168-1.705,3.394-1.357c3.971,1.127,7.968,2.264,11.771,3.84
			c2.847,1.182,2.345,3.77,1.21,5.964c-1.215,2.353-2.792,4.515-4.129,6.808c-1.163,1.992-2.034,4.564-4.939,4.043
			C138.247,55.278,139.28,52.321,138.938,49.545z"/>
		<path d="M149.671,92.01c-5.181,0-10.298-0.015-15.416,0.007c-2.319,0.012-4.659,0.297-6.956,0.094
			c-2.057-0.185-4.113-1.101-3.968-3.598c0.139-2.353,1.911-3.297,4.191-3.297c5.318,0,10.637-0.016,15.956-0.023
			c1.796-0.002,3.591-0.002,5.494-0.002c-0.044-2.615-2.742-5.229,0.541-6.947c2.868-1.502,4.631,0.876,6.448,2.474
			c8.304,7.304,8.287,7.324,0.589,15.259c-0.229,0.238-0.441,0.502-0.697,0.711c-1.744,1.418-3.254,3.662-5.986,2.008
			C148.139,97.649,148.125,96.258,149.671,92.01z"/>
		<path d="M147.858,138.3c-6.813-2.943-13.192-5.637-19.511-8.467c-2.208-0.989-5.185-1.996-3.699-5.289
			c1.387-3.073,3.928-2.064,6.361-0.982c6.492,2.885,13.041,5.648,19.693,8.514c0.684-2.498,0.335-5.758,3.812-5.693
			c2.92,0.055,3.317,2.732,3.901,5.016c0.368,1.435,0.996,2.801,1.439,4.219c0.986,3.136,0.313,5.517-3.014,6.813
			c-1.845,0.72-3.566,1.747-5.402,2.494c-2.232,0.907-4.64,2.599-6.529-0.534C143.094,141.369,146.083,140.418,147.858,138.3z"/>
	</g>
</g>
<g id="video_film_production">
	<g>
		<path d="M111.62,123.167c5.709,9.006,10.688,16.854,15.662,24.705c0.709,1.123,1.447,2.23,2.082,3.396
			c1.008,1.855,1.678,4.018-0.334,5.375c-2.18,1.477-4.041,0.35-5.381-1.791c-3.088-4.93-6.248-9.813-9.363-14.727
			c-2.756-4.352-5.639-8.627-8.18-13.104c-1.686-2.971-3.797-4.303-7.252-3.896c-4.725,0.553-10.855-2.023-13.871,1.182
			c-2.759,2.936-0.68,8.91-0.795,13.541c-0.123,4.994-0.041,9.994-0.033,14.99c0.004,2.092-0.049,4.15-2.856,4.346
			c-2.972,0.209-3.701-1.738-3.729-4.141c-0.086-8.494-0.279-16.992-0.086-25.479c0.08-3.534-1.146-4.192-4.514-4.558
			c-7.15-0.771-11.599,1.588-14.994,8.143c-4.109,7.932-9.428,15.229-14.17,22.838c-1.426,2.289-3.168,4.439-5.945,2.76
			c-3.063-1.857-1.172-4.32,0.156-6.432c4.955-7.871,9.889-15.756,14.934-23.568c1.765-2.734,1.33-3.678-2.016-3.619
			c-7.658,0.133-15.322,0.068-22.984,0.033c-5.877-0.029-8.303-2.186-8.396-8.02c-0.531-32.303-0.56-64.605,0.014-96.91
			c0.099-5.467,2.674-7.984,8.101-7.994c37.477-0.063,74.954-0.063,112.431,0.014c5.641,0.012,8.031,2.688,8.033,8.385
			c0.016,32.146,0.02,64.293-0.004,96.439c-0.005,5.842-2.246,8.055-8.142,8.08C130.896,123.2,121.804,123.167,111.62,123.167z
			 M83.616,27.876c0-0.006,0-0.01,0-0.018c-17.645,0-35.292,0.079-52.937-0.066c-3.449-0.029-4.558,0.969-4.541,4.492
			c0.119,26.635,0.094,53.27-0.025,79.903c-0.016,3.188,0.828,4.384,4.174,4.372c35.791-0.094,71.58-0.09,107.371-0.006
			c3.129,0.009,4.113-1.191,3.969-4.109c-0.229-4.648-0.393-9.307-0.396-13.961c-0.033-21.975-0.092-43.947,0.088-65.92
			c0.03-3.748-1.035-4.809-4.766-4.771C118.907,27.977,101.261,27.876,83.616,27.876z M83.864,17.165c-17.154,0-34.308,0-51.462,0
			c-1,0-2-0.035-2.998,0.014c-1.449,0.072-3.242-0.256-3.145,2.09c0.082,1.922,1.571,1.822,2.905,1.861
			c0.996,0.027,1.996,0.014,2.996,0.014c34.646,0.002,69.285,0.002,103.927,0.004c0.669,0,1.334,0.025,2-0.006
			c1.429-0.063,3.25,0.414,3.354-1.875c0.102-2.26-1.594-2.105-3.115-2.1c-1,0.004-2-0.002-2.998-0.002
			C118.175,17.165,101.019,17.165,83.864,17.165z"/>
		<path d="M85.317,70.963c7.672-1.555,14.324-2.715,20.871-4.301c3.854-0.936,5.547,0.164,6.104,4.066
			c2.451,17.203-9.278,33.869-25.741,36.373c-18.793,2.857-35.219-8.773-38.264-27.1c-2.783-16.738,9.908-34.219,26.896-36.672
			c3.896-0.564,7.97-0.674,11.903,0.293c5.707,1.397,6.291,2.457,4.517,7.979C89.63,57.725,87.634,63.833,85.317,70.963z
			 M55.113,75.003c-0.068,13.908,10.115,24.846,24.277,26.072c11.978,1.037,24.544-9.563,26.626-22.367
			c0.604-3.729-0.313-5.273-4.43-4.283c-6.109,1.467-12.298,2.617-18.472,3.799c-5.531,1.063-7.108-0.639-5.466-5.961
			c1.854-6.008,3.65-12.055,5.927-17.91c1.595-4.102-0.334-4.555-3.544-4.532C66.244,49.913,55.181,61.073,55.113,75.003z"/>
		<path d="M123.259,57.676c0.448,2.406-1.125,3.646-3.216,4.097c-7.916,1.711-15.852,3.37-23.813,4.831
			c-3.521,0.646-5.168-1.295-4.127-4.646c2.447-7.892,5.201-15.688,7.764-23.541c0.734-2.248,2.318-2.543,4.312-2.344
			C111.964,36.854,123.245,49.518,123.259,57.676z M102.851,58.483c1.756-0.416,3.518-0.798,5.262-1.257
			c2.426-0.637,6.289,0.048,6.832-2.475c0.59-2.748-2.344-5.18-4.365-7.334c-0.778-0.83-1.809-1.422-2.707-2.146
			c-1.647-1.327-2.932-1.38-3.662,0.938c-1.032,3.285-2.021,6.588-3.192,9.826C100.306,57.997,100.489,58.921,102.851,58.483z"/>
	</g>
</g>
<g id="public_relations">
	<g>
		<path d="M66.24,34.412c9.717-0.573,18.701,1.983,27.188,6.577c2.19,1.186,5.146,2.178,3.727,5.363
			c-1.594,3.58-4.418,1.81-6.77,0.637c-20.268-10.112-39.646-8.73-57.236,5.619C17.214,65.604,11.24,83.026,15.634,102.974
			c4.532,20.577,17.825,34.074,38.305,39.057c34.341,8.354,65.63-19.215,63.044-54.898c-0.07-0.994-0.326-1.98-0.35-2.975
			c-0.054-2.229,0.69-4.135,3.188-4.244c2.131-0.096,2.922,1.396,3.441,3.474c1.75,7.011,0.932,13.999-0.525,20.786
			c-6.129,28.54-32.145,48.214-61.406,45.909c-30.645-2.415-50.961-26.474-53.42-52.711c-2.774-29.619,17.66-57.834,49.354-62.896
			C60.183,34.007,63.244,34.412,66.24,34.412z"/>
		<path d="M122.892,76.325c-4.244-1.19-9.894-2.561-15.383-4.396c-3.017-1.011-5.277-0.639-7.855,1.176
			c-6.93,4.875-14.063,9.459-21.087,14.197c-3.111,2.098-6.385,3.825-7.723,7.955c-0.906,2.795-3.939,3.629-6.734,2.75
			c-2.947-0.928-4.631-3.119-4.305-6.445c0.293-3.006,1.772-5.257,4.881-5.309c3.086-0.051,5.367-1.502,7.709-3.061
			c6.36-4.229,12.394-9.09,19.14-12.563c6.996-3.604,9.809-9.024,9.406-16.22c-0.492-8.782,3.147-14.329,10.772-18.592
			c7.648-4.274,14.607-9.793,21.854-14.789c4.629-3.193,6.803-2.276,7.578,3.15c0.604,4.254,1.393,8.483,2.008,12.736
			c0.297,2.063,1.656,3.166,3.25,4.143c3.684,2.256,7.367,4.504,11.045,6.77c3.813,2.347,4,5.134,0.41,7.545
			c-9.797,6.578-19.629,13.104-29.447,19.648C127.161,75.856,125.896,76.655,122.892,76.325z M107.261,59.041
			c0.938-0.155,1.313-0.112,1.559-0.272c7.588-5.027,15.172-10.058,22.734-15.123c6.057-4.057,6.229-4.906,4.09-12.065
			c-0.779-2.611-1.762-2.64-3.734-1.252c-5.416,3.81-10.584,8.153-16.443,11.108C107.794,45.307,107.358,51.735,107.261,59.041z
			 M110.63,65.882c5.758,0.91,10.188,5.131,14.676,2.6c8.615-4.86,16.633-10.783,24.99-16.328c-1.822-2.166-3.845-3-5.656-4.138
			c-1.824-1.145-3.428-2.663-5.828-1.036C129.79,53.096,120.712,59.13,110.63,65.882z"/>
		<path d="M66.263,62.089c4.514-0.307,9.217,1.17,13.748,3.411c2.266,1.12,4.272,2.621,2.989,5.364
			c-1.38,2.945-3.786,1.678-5.942,0.724c-10.754-4.762-20.603-3.267-27.992,4.233c-7.461,7.569-8.809,18.563-3.43,27.951
			c5.137,8.963,15.815,13.559,25.596,11.01c10.596-2.762,17.685-11.791,17.968-22.396c0.068-2.564-1.877-7.056,2.933-7.002
			c4.776,0.055,3.969,4.686,3.85,7.7c-0.588,14.928-12.063,27.276-26.66,29.063c-14.406,1.764-27.951-7.285-32.41-21.65
			C31.011,81.491,45.609,61.981,66.263,62.089z"/>
	</g>
</g>
<g id="contract_publishing">
	<g>
		<path d="M83.246,61.093c2.7-6.264,7.063-9.85,13.712-10.272c6.79-0.431,11.379,2.995,14.594,8.616
			c0.941,1.643,1.96,3.104,3.337,4.479c4.356,4.35,3.761,11.826-1.286,15.297c-2.723,1.873-3.895,4.946-6.368,6.938
			c-1.534,1.234-0.644,2.144,0.693,2.763c12.009,5.567,15.613,15.631,15.1,27.975c-0.149,3.633,0.09,7.28-0.054,10.913
			c-0.198,5.099-1.957,6.801-6.903,6.884c-3.792,0.063-7.589,0.037-11.385,0.004c-2.039-0.018-4.383,0.303-4.447-2.813
			c-0.064-3.392,2.44-3.069,4.655-3.13c11.492-0.318,11.308-0.322,11.558-12.187c0.165-7.916-0.668-15.188-8.016-19.95
			c-1.181-0.766-2.456-1.406-3.743-1.974c-6.329-2.792-7.179-8.795-1.777-13.513c2.907-2.537,3.907-6.705,7.898-8.436
			c1.603-0.694,0.908-3.184-0.527-3.993c-2.451-1.388-3.242-3.68-4.367-5.925c-3.331-6.662-9.835-7.617-14.956-2.275
			c-0.654,0.684-1.144,1.761-1.929,2.046c-5.377,1.949-2.136,4.702-0.419,6.703c6.189,7.211,5.89,11.791-1.275,18.128
			c-2.102,1.858-3.782,4.208-5.573,6.402c-1.281,1.568-0.424,2.543,1.105,3.267c11.987,5.656,16.216,15.532,15.512,28.219
			c-0.247,4.415-0.029,8.854-0.049,13.284c-0.015,4.242-2.132,6.464-6.401,6.471c-13.285,0.019-26.573,0.029-39.858,0.003
			c-4.042-0.007-6.096-2.092-6.079-6.167c0.025-7.117-0.345-14.263,0.167-21.344c0.668-9.216,5.672-15.93,13.953-19.896
			c3.344-1.603,3.642-2.777,0.851-5.194c-2.464-2.134-4.172-4.949-6.848-7.046c-4.391-3.443-4.22-10.721-0.098-14.806
			c1.124-1.112,2.202-2.136,2.99-3.558C63.257,55.755,72.488,53.591,83.246,61.093z M71.951,138.387c5.533,0,11.068-0.107,16.6,0.05
			c2.522,0.07,3.313-0.828,3.226-3.279c-0.151-4.263-0.035-8.537-0.035-12.806c-0.002-10.938-3.463-16.083-13.674-20.12
			c-2.274-0.899-3.351-2.149-3.641-4.809C73.542,89.3,80.058,85.916,84.51,81.411c2.286-2.313,3.285-4.239,0.71-6.1
			c-2.137-1.543-2.93-3.529-3.994-5.6c-1.894-3.684-4.464-6.424-9.067-6.467c-4.849-0.046-7.439,2.926-9.388,6.741
			c-0.991,1.939-1.517,3.942-3.818,5.104c-1.93,0.975-2.284,4.189-0.799,4.829c4.597,1.981,5.571,6.997,9.287,9.684
			c4.65,3.365,3.254,10.594-2.052,12.713c-7.062,2.821-11.664,7.57-12.901,15.46c-0.895,5.694-0.24,11.36-0.622,17.021
			c-0.207,3.072,1.233,3.718,3.955,3.64C61.196,138.282,66.574,138.392,71.951,138.387z"/>
		<path d="M58.585,47.945c-0.022,10.446-4.363,17.054-12.457,20.802c-3.386,1.57-3.502,2.892-1.632,5.438
			c0.094,0.127,0.209,0.24,0.289,0.376c1.345,2.309,4.807,4.298,2.563,7.337c-2.474,3.35-5.5,0.437-8.076-0.525
			c-4.746-1.771-9.143-4.257-13.007-7.604c-1.202-1.044-2.566-1.6-4.179-1.987C9.956,68.865,3.142,60.143,3.306,48.014
			c0.135-9.919,8.718-19.353,20.006-21.616c12.369-2.482,23.165,0.23,31.266,10.504C57.382,40.46,58.892,44.582,58.585,47.945z
			 M35.166,71.907c-1.933-5.422,0.79-6.787,5.018-7.752c5.753-1.313,10.016-4.815,11.464-10.75
			c1.505-6.17-0.198-11.502-5.063-15.797c-7.826-6.908-21.63-7.53-29.944-1.244c-10.344,7.82-9.02,22.82,2.971,27.631
			C24.997,66.156,30.329,68.038,35.166,71.907z"/>
		<path d="M162.024,45.764c-0.056,10.323-4.186,16.592-13.265,19.562c-3.548,1.162-6.544,2.893-9.429,5.084
			c-3.419,2.594-7.294,4.379-11.271,5.91c-1.758,0.677-3.786,1.389-5.291-0.361c-1.517-1.762-0.555-3.516,0.567-5.158
			c0.531-0.776,0.905-1.659,1.377-2.479c1.213-2.094,1.102-3.495-1.379-4.824c-8.343-4.467-11.6-11.847-10.588-20.96
			c0.911-8.19,8.77-16.019,17.475-17.995c10.678-2.428,20.01-0.107,27.44,8.268C161.074,36.659,162.566,41.208,162.024,45.764z
			 M132.395,66.502c3.565-0.771,5.117-3.135,7.204-4.745c2.328-1.799,5.366-1.615,7.97-2.723c6.373-2.709,9.701-9.412,7.897-16.252
			c-2.226-8.443-10.754-13.675-20.613-12.641c-7.496,0.787-14.71,6.848-15.578,13.092c-1.061,7.619,2.253,12.958,10.644,16.168
			C133.495,60.769,133.961,62.831,132.395,66.502z"/>
	</g>
</g>
<g id="website_design_build">
	<g>
		<path d="M58.951,129.592c2.439-5.276,4.531-9.797,8.037-13.379c1.496-1.527,0.455-2.69-0.154-3.998
			c-3.129-6.699-1.768-12.725,3.234-17.805c5.393-5.479,12.041-6.629,19.261-4.279c6.818,2.219,10.531,7.146,11.697,14.092
			c0.164,0.97,0.389,2.223-0.057,2.955c-3.646,6.002-1.199,10.65,2.813,15.287c1.447,1.67,2.043,4.08,3.334,6.797
			c2.979-4.93,5.053-9.91,8.681-13.881c1.094-1.199-0.354-2.49-0.793-3.666c-2.699-7.172-0.648-14.738,5.271-19.162
			c6.342-4.739,16.44-4.605,22.812,0.299c5.686,4.38,7.722,11.729,4.864,18.785c-0.922,2.281-0.959,3.756,0.736,5.761
			c5.887,6.959,8.063,15.466,9.428,24.247c0.64,4.115-1.719,4.658-5.045,4.645c-17.313-0.082-34.631-0.047-51.947-0.049
			c-28.968,0-57.937,0.002-86.909,0.002c-6.524,0-6.539-0.355-5.498-6.963c1.35-8.548,3.964-16.441,9.825-22.959
			c1.387-1.537,0.561-2.598,0.005-3.98c-3.056-7.627-1.177-15.09,4.858-19.641c6.25-4.707,16.187-4.828,22.396-0.271
			c6.173,4.527,8.277,11.994,5.32,19.527c-0.711,1.813-1.301,3.24,0.346,4.901C54.796,120.223,56.568,124.581,58.951,129.592z
			 M82.789,140.067c0-0.008,0-0.014,0-0.02c5.328,0,10.656-0.035,15.982,0.018c2.08,0.021,3.902-0.27,3.262-2.938
			c-1.6-6.668-3.543-13.377-9.416-17.57c-3.963-2.83-3.924-4.906-0.766-8.268c3.479-3.705,3.119-8.455-0.271-12.09
			c-3.774-4.05-11.628-4.486-15.94-0.891c-4.511,3.766-4.73,8.33-0.345,13.934c1.873,2.389,2.466,4.469-0.305,6.271
			c-6.037,3.936-8.106,10.199-10.285,16.514c-1.258,3.652-0.586,5.283,3.604,5.092C73.125,139.895,77.96,140.067,82.789,140.067z
			 M34.13,140.051c5.485,0,10.975,0.031,16.461-0.02c1.604-0.02,3.834,0.158,3.192-2.453c-1.651-6.783-3.467-13.66-9.514-18.025
			c-3.512-2.533-4.252-4.791-1.041-7.979c1.957-1.943,3.342-4.396,2.692-7.156c-1.014-4.336-3.709-7.359-8.291-8.242
			c-5.479-1.059-10.276,0.717-12.581,4.844c-2.203,3.951-1.521,7.695,1.518,10.977c2.658,2.875,2.197,4.992-0.945,7.316
			c-5.645,4.176-7.854,10.449-9.537,16.971c-0.727,2.809,0.052,3.932,3.082,3.82C24.15,139.928,29.142,140.057,34.13,140.051z
			 M131.433,140.059c5.158,0,10.326-0.166,15.477,0.061c3.39,0.146,4.021-1.209,3.213-4.138c-1.789-6.472-3.914-12.772-9.727-16.854
			c-3.033-2.131-3.426-4.328-0.848-6.938c1.719-1.736,2.696-3.729,2.848-6.172c0.297-4.922-2.576-7.799-6.613-9.521
			c-4.674-1.998-10.729-0.143-13.471,3.737c-2.787,3.942-2.549,7.798,0.697,11.313c2.211,2.394,3.52,4.748,0.176,7.031
			c-6.244,4.26-8.211,10.877-10.408,17.541c-1.188,3.606,0.279,4.012,3.176,3.969C121.112,140.012,126.272,140.067,131.433,140.059z
			"/>
		<path d="M83.614,22.139c17.664,0.004,35.326,0.002,52.99,0.006c8.191,0,10.492,2.223,10.5,10.212
			c0.018,16.661,0.02,33.325,0,49.989c-0.002,2.443,0.521,5.551-3.086,5.729c-3.808,0.184-3.855-2.902-3.859-5.648
			c-0.016-15.998-0.203-31.998,0.109-47.988c0.09-4.604-1.385-5.418-5.625-5.396c-33.992,0.172-67.986,0.168-101.98-0.002
			c-4.248-0.021-5.733,0.836-5.647,5.438c0.309,16.158,0.121,32.326,0.104,48.49c-0.004,2.283,0.51,5.121-2.996,5.169
			c-3.676,0.052-3.465-2.855-3.473-5.376c-0.049-17.162-0.119-34.324-0.094-51.485c0.01-6.726,2.576-9.12,9.563-9.132
			C47.955,22.117,65.785,22.133,83.614,22.139z"/>
	</g>
</g>
<g id="social_media_campaigns">
	<g>
		<path d="M85.35,136.591c-5.662,0-11.323-0.085-16.981,0.032c-3,0.064-4.344-1.246-4.219-4.152
			c0.502-11.697-2.925-21.93-9.398-31.855c-7.769-11.915-7.616-24.954-0.261-37.313c7.018-11.791,17.852-17.733,31.458-17.768
			c27.617-0.066,44.958,30.563,31.055,54.489c-0.416,0.717-0.854,1.42-1.319,2.104c-5.909,8.729-9.984,17.988-8.515,28.898
			c0.544,4.031-1.088,5.791-5.325,5.59c-5.485-0.258-10.992-0.063-16.491-0.063C85.35,136.565,85.35,136.578,85.35,136.591z
			 M86.947,52.303c-12.564,0.159-21.548,5.265-27.119,15.319c-5.797,10.465-5.195,21.229,1.739,31.018
			c5.887,8.302,8.909,17.402,9.323,27.369c0.148,3.648,1.398,4.537,4.745,4.307c4.4-0.313,2.465-3.389,2.168-5.146
			c-2.222-13.242-4.375-26.506-8.095-39.443c-0.636-2.207-1.732-4.708,0.939-6.239c2.514-1.438,3.775,0.656,5.271,2.313
			c5.146,5.705,13.563,5.25,18.494-0.875c1.189-1.479,2.455-2.897,4.584-1.867c2.447,1.183,2.401,3.103,1.7,5.475
			c-4.048,13.68-7.062,27.572-8.31,41.816c-0.202,2.297-0.168,4.113,2.807,3.928c2.141-0.135,4.887,0.896,4.943-3.018
			c0.158-11.143,4.396-20.811,10.419-30.047c6.101-9.354,6.343-19.46,0.966-29.279C106.083,57.979,97.389,52.887,86.947,52.303z
			 M84.794,126.126c1.037-1.388,1.048-3.035,1.291-4.625c1.078-7.022,2.156-14.052,3.32-21.063c0.405-2.438,2.139-5.327,1.32-7.123
			c-1.047-2.296-4.417-0.402-6.729-0.876c-0.485-0.102-1.041,0.004-1.478-0.188c-4.901-2.125-4.35,0.402-3.615,3.864
			C80.998,106.021,82.823,115.979,84.794,126.126z"/>
		<path d="M85.671,148.582c-5.466,0-10.934-0.004-16.397,0.002c-2.132,0.002-4.037-0.202-4.09-3.055
			c-0.056-2.772,1.647-3.262,3.891-3.258c11.104,0.02,22.208,0.023,33.313,0.018c2.255-0.002,3.944,0.531,3.871,3.285
			c-0.08,2.883-2.089,2.969-4.173,2.974c-5.471,0.009-10.939,0.003-16.414,0.003C85.671,148.562,85.671,148.572,85.671,148.582z"/>
		<path d="M37.657,58.637c-7.037-2.343-14.08-4.662-21.105-7.033c-1.811-0.611-2.761-1.938-2.168-3.854
			c0.659-2.135,2.493-2.783,4.39-2.21c6.939,2.102,13.825,4.393,20.729,6.617c1.819,0.587,2.845,1.899,2.427,3.745
			C41.454,58.001,39.837,58.759,37.657,58.637z"/>
		<path d="M129.306,58.784c-2.112-0.016-3.392-1.029-3.888-2.793c-0.463-1.652,0.433-3.008,1.998-3.529
			c7.209-2.394,14.429-4.761,21.7-6.947c1.668-0.504,3.369,0.176,3.908,2.17c0.44,1.629-0.056,3.188-1.649,3.742
			C144.048,53.964,136.667,56.344,129.306,58.784z"/>
		<path d="M85.7,154.312c3.979,0,7.958,0.008,11.938-0.002c2.121-0.006,3.534,0.76,3.53,3.139
			c-0.002,2.412-1.491,3.086-3.575,3.088c-7.955,0.002-15.905,0.002-23.858,0.021c-2.153,0.004-3.542-0.867-3.532-3.174
			c0.015-2.313,1.438-3.133,3.579-3.119c3.977,0.021,7.947,0.006,11.92,0.006C85.7,154.281,85.7,154.297,85.7,154.312z"/>
		<path d="M121.134,110.405c6.353,2.713,14.059,3.734,20.514,8.031c1.125,0.75,1.854,1.938,1.107,3.451
			c-0.701,1.416-1.972,1.916-3.33,1.504c-6.798-2.068-13.58-4.186-20.315-6.438c-1.785-0.598-2.328-2.274-1.983-4.11
			C117.464,111.054,118.763,110.494,121.134,110.405z"/>
		<path d="M30.396,123.371c-2.739,0.177-4.16-0.743-4.564-2.868c-0.347-1.81,0.675-2.767,2.34-3.197
			c6.107-1.58,11.925-3.979,17.757-6.334c2.036-0.819,4.095-1.078,5.112,1.25c1.037,2.371-0.644,3.595-2.612,4.545
			C42.447,119.649,36.142,121.601,30.396,123.371z"/>
		<path d="M89.159,18.369c0.001,2.981-0.013,5.963,0.008,8.944c0.016,2.235-1.245,3.479-3.295,3.546
			c-1.918,0.064-3.091-1.346-3.103-3.182c-0.052-6.285,0.01-12.572,0.148-18.857c0.045-1.972,1.333-3.007,3.319-2.744
			c1.862,0.247,2.944,1.341,2.927,3.349C89.141,12.407,89.157,15.388,89.159,18.369z"/>
	</g>
</g>
</defs>
</svg>
