<?xml version="1.0" encoding="utf-8"?>
<!-- Generator: Adobe Illustrator 17.0.0, SVG Export Plug-In . SVG Version: 6.00 Build 0)  -->
<!DOCTYPE svg PUBLIC "-//W3C//DTD SVG 1.1//EN" "http://www.w3.org/Graphics/SVG/1.1/DTD/svg11.dtd">
<svg version="1.1" id="Layer_1" xmlns="http://www.w3.org/2000/svg" xmlns:xlink="http://www.w3.org/1999/xlink" x="0px" y="0px"
	 width="172.376px" height="210.656px" viewBox="0 0 172.376 210.656" enable-background="new 0 0 172.376 210.656"
	 xml:space="preserve">
<g>
	<g>
		<g>
			<path fill="#5D4523" d="M12.375,17.332c0-2.754,2.479-4.957,5.232-4.957l-1.718-8.435l8.603,8.435l119.52,138.246h0.275V20.361
				c0-2.754,2.203-5.232,5.232-5.232l11.668-7.915c0,0,8.539,8.486,9.49,9.386c1.03,0.973,1.699,2.33,1.699,3.761v185.338
				c0,2.754-2.479,4.957-5.232,4.957c0,0-2.751,0-5.253,0s-3.59-1.66-3.59-1.66l-9.319-9.642L40.464,68.554h-0.275v134.115
				c0,2.754-2.203,5.232-5.232,5.232h-17.35c-1.48,0-2.88-0.716-3.859-1.805c-0.843-0.938-9.833-9.855-9.833-9.855L12.375,17.332z"
				/>
		</g>
	</g>
	<g>
		<defs>
			<path id="SVGID_1_" d="M12.375,17.332c0-2.754,2.479-4.957,5.232-4.957l-1.718-8.435l8.603,8.435l119.52,138.246h0.275V20.361
				c0-2.754,2.203-5.232,5.232-5.232l11.668-7.915c0,0,8.539,8.486,9.49,9.386c1.03,0.973,1.699,2.33,1.699,3.761v185.338
				c0,2.754-2.479,4.957-5.232,4.957c0,0-2.751,0-5.253,0s-3.59-1.66-3.59-1.66l-9.319-9.642L40.464,68.554h-0.275v134.115
				c0,2.754-2.203,5.232-5.232,5.232h-17.35c-1.48,0-2.88-0.716-3.859-1.805c-0.843-0.938-9.833-9.855-9.833-9.855L12.375,17.332z"
				/>
		</defs>
		<clipPath id="SVGID_2_">
			<use xlink:href="#SVGID_1_"  overflow="visible"/>
		</clipPath>
		<g clip-path="url(#SVGID_2_)">
			<g>
				<g>
					<g>
						<path fill="#553E1F" d="M128.873,194.075c0,0,13.133,17.92,15.061,17.92l31.647-0.572l-1.545-4.806l-12.102-11.951
							L128.873,194.075z"/>
					</g>
				</g>
				<g>
					<g>
						<path fill="#553E1F" d="M158.425-1.683c0,0,17.427,10.246,19.354,10.246l-2.199,20.703l-1.545-4.806l-12.102-11.951
							L158.425-1.683z"/>
					</g>
				</g>
				<g>
					<g>
						<path fill="#4B371C" d="M128.682,196.982c0,0,13.133,17.92,15.061,17.92l31.647-0.572l-1.545-4.806l-12.102-11.951
							L128.682,196.982z"/>
					</g>
				</g>
				<g>
					<g>
						<path fill="#48351B" d="M126.682,197.982c0,0,13.133,17.92,15.061,17.92l31.647-0.572l-1.545-4.806l-12.102-11.951
							L126.682,197.982z"/>
					</g>
				</g>
			</g>
			<g>
				<g>
					<path fill="#553E1F" d="M-4.877,189.793c0,0,13.133,17.92,15.061,17.92l31.647-0.572l-1.545-4.806l-12.102-11.951
						L-4.877,189.793z"/>
				</g>
			</g>
			<g>
				<g>
					<path fill="#553E1F" d="M25.75,66.785c0,0,0.822-17.75,2.75-17.75l15,11.25l-2.405,44.498L28.993,92.831L25.75,66.785z"/>
				</g>
			</g>
			<g>
				<g>
					<path fill="#4B371C" d="M-4.971,193.054c0,0,13.133,17.92,15.061,17.92l31.647-0.572l-1.545-4.806l-12.102-11.951
						L-4.971,193.054z"/>
				</g>
			</g>
			<g>
				<g>
					<path fill="#48351B" d="M-7.068,194.732c0,0,13.133,17.92,15.061,17.92l31.647-0.572l-1.545-4.806l-12.102-11.951
						L-7.068,194.732z"/>
				</g>
			</g>
			<g>
				<g>
					<path fill="#48351B" d="M25.75,54.285c0,0,0.822-17.75,2.75-17.75l15,11.25l-2.405,44.498L28.993,80.331L25.75,54.285z"/>
				</g>
			</g>
		</g>
	</g>
	<g>
		<g>
			<g>
				<path fill="#C9974D" d="M152.088,198.281c-0.666,0-1.728-0.996-2.11-1.529l-0.057-0.079c0,0-114.286-135.879-114.944-136.661
					c-0.818-0.972-2.13-2.13-3.736-2.13c-0.804,0-3.427,0.334-3.427,4.631v130.282c0,1.314-1.044,2.732-2.732,2.732H7.732
					c-1.379,0-2.732-1.354-2.732-2.732V7.457C5,6.148,6.277,5,7.732,5h5.248c0.57,0,1.137,0.713,1.142,0.72l0.086,0.129
					l116.21,134.419c0.593,0.775,1.763,1.977,3.32,1.977c0.53,0,3.174-0.203,3.174-4.229V10.486c0-1.314,1.045-2.732,2.732-2.732
					h17.625c1.379,0,2.732,1.354,2.732,2.732v185.338c0,1.309-1.276,2.457-2.732,2.457H152.088z"/>
				<path fill="#E2C675" d="M12.33,7.5l0.088,0.102l116.064,134.249c0.901,1.158,2.682,2.895,5.256,2.895
					c2.107,0,5.673-1.417,5.673-6.729V10.486c0-0.002,0.01-0.232,0.232-0.232h17.577c0.098,0.041,0.239,0.182,0.281,0.28v185.15
					c-0.058,0.048-0.154,0.096-0.232,0.096h-4.762c-0.163-0.127-0.372-0.332-0.512-0.507l-0.05-0.078l-0.173-0.206
					C150.63,193.632,37.542,59.176,36.89,58.403c-1.16-1.378-3.081-3.02-5.648-3.02c-2.157,0-4.118,1.225-5.117,3.198
					c-0.545,1.076-0.81,2.362-0.81,3.933v130.282c0,0.002-0.01,0.232-0.232,0.232H7.781c-0.098-0.041-0.239-0.182-0.281-0.28V7.596
					C7.558,7.549,7.654,7.5,7.732,7.5H12.33 M12.981,2.5c-1.997,0-5.248,0-5.248,0C4.979,2.5,2.5,4.703,2.5,7.457v185.338
					c0,2.754,2.479,5.232,5.232,5.232h17.35c3.029,0,5.232-2.479,5.232-5.232c0,0,0-126.632,0-130.282
					c0-1.619,0.412-2.131,0.927-2.131c0.647,0,1.457,0.805,1.823,1.24c0.658,0.782,114.88,136.586,114.88,136.586
					s1.844,2.573,4.143,2.573s5.181,0,5.181,0c2.754,0,5.232-2.203,5.232-4.957V10.486c0-2.754-2.479-5.232-5.232-5.232h-17.625
					c-3.029,0-5.232,2.479-5.232,5.232c0,0,0,124.734,0,127.531c0,1.322-0.302,1.729-0.673,1.729c-0.597,0-1.374-1.049-1.374-1.049
					L16.201,4.332C16.201,4.332,14.978,2.5,12.981,2.5L12.981,2.5z"/>
			</g>
		</g>
	</g>
</g>
</svg>
