<?xml version="1.0" encoding="utf-8"?>
<!-- Generator: Adobe Illustrator 17.0.0, SVG Export Plug-In . SVG Version: 6.00 Build 0)  -->
<!DOCTYPE svg PUBLIC "-//W3C//DTD SVG 1.1//EN" "http://www.w3.org/Graphics/SVG/1.1/DTD/svg11.dtd">
<svg version="1.1" id="Layer_1" xmlns="http://www.w3.org/2000/svg" xmlns:xlink="http://www.w3.org/1999/xlink" x="0px" y="0px"
	 width="172.953px" height="205.648px" viewBox="0 0 172.953 205.648" enable-background="new 0 0 172.953 205.648"
	 xml:space="preserve">
<g>
	<g>
		<g>
			<path fill="#5D4523" d="M78.18,112.841l-64.441-91.98c-2.203-3.58,0-7.986,4.406-7.986L30.4,3.022
				c0,0,11.704,11.229,12.531,12.331l49.846,70.225l49.846-70.225c0.826-1.102,2.479-2.479,4.406-2.479l14.086-8.852
				c0,0,10.047,9.721,10.941,11c1.121,1.602,1.258,3.848,0.033,5.839l-65.268,91.705v87.85c0,2.754-2.479,5.232-5.232,5.232H83.413
				c-1.477,0-2.757-0.589-3.682-1.512c-0.972-0.97-10.695-10.738-10.695-10.738L78.18,112.841z"/>
		</g>
	</g>
	<g>
		<defs>
			<path id="SVGID_1_" d="M78.18,112.841l-64.441-91.98c-2.203-3.58,0-7.986,4.406-7.986L30.4,3.022
				c0,0,11.704,11.229,12.531,12.331l49.846,70.225l49.846-70.225c0.826-1.102,2.479-2.479,4.406-2.479l14.086-8.852
				c0,0,10.047,9.721,10.941,11c1.121,1.602,1.258,3.848,0.033,5.839l-65.268,91.705v87.85c0,2.754-2.479,5.232-5.232,5.232H83.413
				c-1.477,0-2.757-0.589-3.682-1.512c-0.972-0.97-10.695-10.738-10.695-10.738L78.18,112.841z"/>
		</defs>
		<clipPath id="SVGID_2_">
			<use xlink:href="#SVGID_1_"  overflow="visible"/>
		</clipPath>
		<g clip-path="url(#SVGID_2_)">
			<g>
				<path fill="#553E1F" d="M63.086,186.817c0,0,13.133,17.92,15.061,17.92l31.647-0.572l-1.545-4.806l-12.102-11.951
					L63.086,186.817z"/>
			</g>
		</g>
		<g clip-path="url(#SVGID_2_)">
			<g>
				<path fill="#48351B" d="M92.776,85.578l49.846-70.225c0.826-1.102,2.479-2.479,4.406-2.479l14.086-8.852
					c0,0,10.047,9.721,10.941,11c1.121,1.602,1.258,3.848,0.033,5.839l-65.268,91.705l-12.102-11.951L92.776,85.578z"/>
			</g>
		</g>
		<g clip-path="url(#SVGID_2_)">
			<g>
				<path fill="#553E1F" d="M163.65-7.478c0,0,18.072,17,20,17l-9.106,15.643l-1.545-4.806L160.897,8.408L163.65-7.478z"/>
			</g>
		</g>
		<g clip-path="url(#SVGID_2_)">
			<g>
				<path fill="#4E391D" d="M62.895,189.724c0,0,13.133,17.92,15.061,17.92l31.647-0.572l-1.545-4.806l-12.102-11.951
					L62.895,189.724z"/>
			</g>
		</g>
		<g clip-path="url(#SVGID_2_)">
			<g>
				<path fill="#48351B" d="M60.895,191.723c0,0,13.133,17.92,15.061,17.92l31.647-0.572l-1.545-4.806l-12.102-11.951
					L60.895,191.723z"/>
			</g>
		</g>
	</g>
	<g>
		<g>
			<g>
				<path fill="#C9974D" d="M73.038,192.773c-1.688,0-2.732-1.418-2.732-2.732v-87.574c0-0.513-0.158-1.014-0.453-1.435L5.46,9.121
					C4.903,8.179,4.849,7.124,5.318,6.286C5.781,5.457,6.652,5,7.771,5H28.15c0.604,0,1.423,0.168,2.406,1.479L80.363,76.65
					c0.469,0.66,1.229,1.053,2.039,1.053s1.57-0.393,2.039-1.053l49.846-70.225C134.798,5.744,135.802,5,136.653,5h20.654
					c1.118,0,1.99,0.457,2.453,1.286c0.467,0.836,0.414,1.889-0.139,2.828l-65.213,91.628c-0.301,0.423-0.463,0.93-0.463,1.45v87.85
					c0,1.379-1.354,2.732-2.732,2.732H73.038z"/>
				<path fill="#E2C675" d="M157.308,7.5c0.141,0,0.226,0.018,0.271,0.032c0,0.046-0.015,0.129-0.073,0.244L92.373,99.292
					c-0.603,0.847-0.926,1.86-0.926,2.899v87.802c-0.041,0.098-0.183,0.239-0.281,0.281H73.038c-0.222,0-0.232-0.23-0.232-0.232
					v-87.574c0-1.027-0.316-2.028-0.905-2.869L7.577,7.786C7.516,7.666,7.5,7.579,7.5,7.532C7.544,7.518,7.63,7.5,7.771,7.5
					l20.345,0c0.06,0.044,0.198,0.161,0.408,0.435l49.801,70.161c0.938,1.321,2.457,2.106,4.077,2.106
					c1.62,0,3.14-0.785,4.077-2.106l49.793-70.15c0.147-0.184,0.38-0.372,0.524-0.447H157.308 M157.308,2.5h-20.654
					c-1.928,0-3.58,1.377-4.406,2.479L82.401,75.203L32.556,4.979C31.73,3.877,30.353,2.5,28.149,2.5H7.771
					c-4.406,0-6.609,4.406-4.406,7.986l64.441,91.98v87.574c0,2.754,2.203,5.232,5.232,5.232h18.176
					c2.754,0,5.232-2.479,5.232-5.232v-87.85l65.268-91.705C163.917,6.906,161.714,2.5,157.308,2.5L157.308,2.5z"/>
			</g>
		</g>
	</g>
</g>
</svg>
